<?xml version="1.0" standalone="no"?>
<!DOCTYPE svg PUBLIC "-//W3C//DTD SVG 20010904//EN"
 "http://www.w3.org/TR/2001/REC-SVG-20010904/DTD/svg10.dtd">
<svg version="1.0" xmlns="http://www.w3.org/2000/svg"
 width="2604.000000pt" height="908.000000pt" viewBox="0 0 2604.000000 908.000000"
 preserveAspectRatio="xMidYMid meet">

<g transform="translate(0.000000,908.000000) scale(0.100000,-0.100000)"
fill="#000000" stroke="none">
<path d="M1803 8088 c-12 -6 -27 -24 -34 -40 -12 -29 -10 -53 12 -193 7 -46 8
-151 4 -310 -4 -132 -9 -316 -10 -410 -2 -128 -8 -195 -24 -270 -25 -117 -43
-354 -37 -510 2 -83 8 -123 25 -163 23 -57 29 -118 10 -106 -8 4 -9 -1 -4 -17
37 -121 111 -155 320 -145 63 3 123 10 134 16 11 5 31 10 45 10 42 0 55 11 66
52 12 41 4 98 -26 202 -17 60 -19 271 -3 363 8 47 17 68 35 82 26 20 105 41
338 87 167 33 166 34 166 -86 0 -120 19 -282 51 -441 35 -177 54 -243 74 -259
16 -13 228 -59 274 -60 14 0 44 9 68 21 34 16 45 28 53 57 12 43 28 66 53 75
9 4 22 19 28 34 12 29 12 29 -35 248 -8 39 -22 144 -31 235 -9 91 -30 248 -47
350 -37 216 -40 354 -14 594 9 82 16 192 16 245 0 90 -2 100 -29 143 -39 61
-133 134 -195 153 -65 20 -71 19 -96 -7 -25 -28 -33 -53 -75 -266 -33 -167
-50 -297 -79 -606 -9 -104 -17 -151 -27 -157 -8 -5 -66 -25 -129 -44 -63 -20
-169 -53 -235 -75 -69 -22 -124 -35 -129 -30 -5 5 -10 193 -11 422 -2 438 -6
478 -50 555 -29 48 -73 85 -176 146 -41 25 -101 61 -133 81 -61 37 -102 44
-143 24z m17 -2080 c0 -6 -7 -5 -15 2 -8 7 -15 17 -15 22 0 6 7 5 15 -2 8 -7
15 -17 15 -22z"/>
<path d="M4915 7250 c-31 -35 -85 -354 -85 -507 0 -41 7 -122 15 -180 l16
-104 -50 -55 c-27 -30 -75 -89 -105 -132 -123 -173 -327 -360 -444 -405 -83
-33 -196 -15 -223 35 -8 13 -14 68 -16 128 -2 58 -5 124 -6 147 -2 57 18 76
140 134 126 59 180 109 230 216 45 93 50 144 29 284 -9 59 -16 127 -16 152 0
67 -28 144 -64 174 -28 23 -36 25 -96 20 -152 -14 -326 -79 -413 -157 -101
-89 -203 -272 -253 -450 -19 -71 -27 -128 -31 -227 -5 -116 -3 -139 17 -204
26 -86 60 -139 132 -204 94 -84 269 -156 383 -157 77 -1 238 42 333 89 57 28
105 66 222 176 151 141 187 186 234 286 l25 55 11 -30 c45 -123 120 -210 218
-256 160 -76 317 -32 462 131 42 46 66 67 71 59 3 -7 2 -83 -3 -168 -12 -195
-19 -212 -140 -323 -112 -101 -195 -211 -258 -342 -66 -136 -85 -214 -85 -351
0 -106 1 -113 30 -159 55 -88 120 -103 248 -55 73 27 223 126 295 193 186 176
289 448 368 977 49 332 42 571 -22 751 -15 41 -38 107 -51 147 -16 47 -33 76
-46 84 -31 16 -156 15 -191 -2 -54 -27 -67 -58 -82 -187 -15 -141 -49 -244
-137 -423 -74 -149 -125 -210 -179 -210 -41 0 -75 29 -105 88 -20 42 -22 117
-8 472 10 279 -5 331 -127 422 -113 85 -204 111 -243 68z m-607 -477 c7 -47
-99 -253 -175 -343 -38 -44 -88 -69 -106 -51 -8 8 -5 30 12 89 45 155 79 209
185 294 53 42 79 46 84 11z m1283 -1093 c17 9 19 7 19 -17 0 -25 -27 -198 -52
-326 -13 -67 -44 -117 -129 -211 -96 -105 -149 -122 -149 -49 1 105 65 305
138 430 46 78 144 192 150 174 3 -8 9 -8 23 -1z"/>
<path d="M8279 6209 c-60 -9 -86 -23 -109 -61 -18 -29 -18 -31 1 -72 10 -22
19 -55 19 -72 0 -60 29 -132 63 -158 39 -30 199 -76 262 -76 74 0 138 46 169
122 20 48 20 82 0 143 -25 71 -79 120 -161 145 -86 26 -185 37 -244 29z"/>
<path d="M9089 6209 c-55 -8 -95 -32 -113 -67 -12 -22 -11 -30 5 -56 9 -17 20
-58 24 -91 9 -75 36 -136 72 -157 54 -31 212 -71 268 -66 61 5 111 40 145 101
33 57 25 151 -16 209 -40 58 -79 82 -171 106 -95 25 -153 30 -214 21z"/>
<path d="M9901 6208 c-51 -9 -84 -28 -108 -64 -15 -24 -15 -27 0 -54 9 -15 22
-63 28 -106 12 -88 16 -99 53 -133 32 -30 202 -81 271 -81 84 0 156 62 176
150 20 87 -34 201 -113 239 -82 39 -230 63 -307 49z"/>
<path d="M1784 4829 c-49 -14 -58 -48 -50 -192 4 -81 1 -199 -10 -347 -20
-279 -15 -416 46 -1118 19 -213 68 -361 151 -456 50 -56 85 -76 137 -76 32 0
55 11 125 63 l86 62 0 170 c1 94 -4 346 -10 560 -9 300 -8 464 1 710 15 367
11 401 -57 476 -78 86 -327 174 -419 148z"/>
<path d="M8985 4771 c-42 -18 -48 -36 -42 -126 4 -51 0 -134 -8 -208 -8 -67
-15 -151 -15 -187 0 -86 -15 -136 -46 -157 -23 -15 -37 -15 -121 -5 -145 17
-186 -9 -169 -103 12 -61 95 -107 221 -123 l60 -7 -2 -293 c-1 -293 -1 -294
-26 -330 -13 -20 -63 -114 -110 -208 -146 -289 -211 -351 -304 -294 -73 44
-94 122 -94 350 0 91 3 188 7 215 3 28 1 86 -5 130 -22 159 -111 287 -241 349
-58 28 -75 31 -155 31 -78 0 -97 -4 -147 -28 -94 -46 -275 -242 -353 -382 -20
-36 -41 -68 -47 -71 -7 -4 -7 29 -2 102 5 60 9 168 8 239 0 111 -4 138 -23
189 -43 109 -137 181 -313 240 -109 37 -142 35 -185 -11 l-34 -38 8 -85 c12
-128 8 -345 -11 -530 -9 -90 -19 -230 -21 -310 l-5 -145 -60 -72 c-34 -40 -91
-95 -128 -123 -62 -46 -68 -48 -80 -32 -15 19 -12 79 13 297 29 254 29 293 1
368 -14 37 -26 76 -26 87 0 22 -185 160 -239 179 -82 27 -121 6 -121 -64 0
-87 -21 -95 -96 -37 -91 71 -239 161 -274 167 -40 7 -233 -47 -329 -92 -72
-34 -165 -128 -214 -218 -45 -81 -89 -207 -111 -316 -14 -68 -14 -83 -1 -133
19 -73 54 -127 129 -201 141 -138 299 -165 472 -80 60 29 83 49 144 120 40 47
76 83 80 80 5 -3 14 -22 21 -43 24 -76 97 -218 125 -244 46 -42 138 -86 197
-93 118 -15 255 56 422 216 l101 98 12 -42 c28 -103 97 -153 198 -145 71 6
174 58 218 110 36 41 46 65 85 191 21 66 132 277 216 407 23 36 78 103 122
148 129 133 136 120 138 -263 2 -243 5 -293 23 -375 39 -172 115 -287 234
-350 55 -30 74 -35 153 -38 104 -5 182 16 269 72 94 60 208 205 302 379 l31
58 7 -100 c11 -155 41 -246 113 -346 36 -49 110 -88 178 -92 59 -5 92 10 120
54 11 18 27 35 36 38 10 3 27 35 40 78 13 39 34 85 46 102 12 16 35 48 50 69
l28 40 2 190 c2 340 13 850 18 873 3 13 15 25 28 28 26 7 193 11 254 6 47 -4
109 23 156 67 83 79 -26 134 -270 136 -80 1 -147 6 -153 12 -6 6 -6 30 1 70
15 87 -10 333 -37 352 -64 45 -246 156 -293 179 -59 28 -142 39 -176 24z
m-3075 -1321 c140 0 184 -158 81 -295 -21 -28 -53 -80 -70 -115 -51 -103 -158
-199 -263 -234 -48 -17 -60 -18 -87 -6 -68 28 -54 108 73 408 82 195 131 259
190 248 16 -4 50 -6 76 -6z"/>
<path d="M10882 4764 c-35 -24 -44 -57 -32 -126 6 -39 6 -87 -1 -137 -5 -42
-14 -140 -19 -219 -5 -79 -14 -151 -20 -161 -18 -36 -65 -45 -155 -33 -127 17
-165 0 -165 -74 0 -80 79 -134 222 -151 l63 -8 3 -125 c2 -69 -4 -273 -13
-455 -10 -181 -14 -367 -11 -412 16 -196 87 -334 201 -387 91 -43 177 -29 210
34 8 16 24 34 34 40 11 6 28 38 41 77 13 41 40 92 67 127 25 32 49 72 53 87 5
15 8 133 7 261 0 128 3 362 7 521 8 263 10 288 27 297 18 10 188 17 265 11 74
-6 189 70 182 121 -7 51 -171 93 -329 84 -126 -8 -134 -2 -121 83 14 93 -10
331 -35 349 -65 47 -220 140 -287 173 -89 43 -154 51 -194 23z"/>
<path d="M14040 4752 l-30 -31 6 -93 c4 -60 0 -143 -10 -235 -9 -78 -16 -165
-16 -192 0 -106 -36 -130 -164 -114 -94 13 -128 9 -153 -19 -25 -28 -20 -94 9
-125 42 -45 146 -83 228 -83 24 0 31 -5 36 -27 8 -31 -1 -372 -17 -648 -18
-309 -5 -445 57 -567 52 -102 143 -168 233 -168 47 0 111 29 111 51 0 6 13 23
28 37 16 16 40 59 56 102 15 41 42 93 60 115 62 75 60 65 62 395 1 168 5 408
9 533 7 205 9 229 26 237 17 10 185 16 265 10 45 -3 125 33 165 76 31 33 19
71 -29 91 -67 28 -191 45 -285 39 -124 -8 -129 -5 -121 92 6 76 -8 290 -22
325 -3 10 -25 27 -48 39 -22 11 -74 43 -115 70 -101 69 -195 111 -257 116 -49
4 -56 2 -84 -26z"/>
<path d="M16773 4690 c-52 -11 -77 -23 -130 -67 -54 -43 -164 -195 -208 -288
-85 -175 -165 -572 -216 -1060 -11 -108 -12 -110 -47 -139 -19 -17 -73 -82
-120 -145 -98 -132 -281 -321 -364 -375 -101 -65 -197 -83 -273 -52 -48 20
-57 45 -61 165 -2 58 -5 125 -6 148 -3 57 16 76 142 135 123 57 177 108 231
215 30 61 34 76 34 153 -1 113 -30 358 -48 402 -33 80 -85 92 -239 58 -175
-38 -292 -104 -376 -211 -209 -267 -285 -681 -164 -902 68 -125 266 -244 452
-271 60 -9 252 39 355 89 72 34 112 68 335 280 25 24 63 74 85 111 l40 68 2
-34 c18 -244 43 -364 103 -486 72 -148 149 -203 280 -204 112 0 225 42 336
125 135 102 194 187 257 370 l44 129 7 -82 c21 -260 142 -491 277 -531 166
-50 414 57 566 244 57 71 88 137 148 320 60 180 81 271 71 311 l-7 27 -23 -22
c-12 -12 -43 -65 -68 -119 -26 -53 -69 -145 -96 -204 -54 -114 -102 -192 -136
-220 -59 -49 -128 12 -157 139 -6 26 -15 185 -20 353 -5 168 -12 379 -15 470
-9 225 0 269 69 330 137 121 265 281 299 376 27 76 30 195 5 240 -21 40 -81
92 -149 130 -46 24 -63 28 -128 28 -103 -1 -163 -28 -238 -108 -70 -76 -143
-184 -183 -271 -79 -175 -143 -491 -199 -981 -23 -202 -14 -178 -176 -511 -67
-139 -124 -213 -163 -213 -36 0 -87 59 -106 121 -17 57 -28 268 -41 794 -7
303 -3 342 48 384 164 139 286 292 319 402 26 84 23 201 -5 244 -20 30 -94 86
-151 115 -48 23 -134 32 -192 20z m176 -225 c46 -53 44 -115 -8 -221 -44 -90
-126 -204 -147 -204 -17 0 -17 -9 1 135 26 200 68 325 110 325 7 0 27 -16 44
-35z m1004 14 c62 -48 57 -133 -14 -269 -62 -120 -160 -219 -145 -147 3 12 10
65 16 117 20 173 68 320 104 320 8 0 25 -9 39 -21z m-2315 -1013 c5 -37 -92
-232 -153 -309 -50 -63 -107 -99 -126 -80 -14 14 -1 73 42 185 35 89 58 120
142 190 65 54 90 58 95 14z"/>
<path d="M3373 4146 c-18 -22 -19 -50 -18 -507 1 -506 5 -570 52 -759 67 -274
249 -377 550 -311 113 24 182 54 219 92 15 16 38 29 50 29 13 0 52 -28 99 -70
88 -80 127 -95 221 -87 105 10 227 71 274 137 40 56 210 401 230 468 48 156
64 379 36 525 -19 95 -92 331 -119 379 -22 41 -68 68 -117 68 -26 0 -33 -6
-45 -34 -18 -41 -14 -66 30 -206 49 -155 87 -333 92 -435 9 -151 -23 -253
-127 -409 -74 -110 -145 -186 -176 -188 -24 -2 -141 80 -183 128 -41 46 -40
86 5 194 58 137 77 214 72 291 -4 73 -23 105 -79 134 -31 16 -190 38 -212 29
-49 -18 -94 -171 -117 -396 -11 -113 -1 -222 31 -308 25 -69 17 -92 -35 -110
-27 -9 -42 -8 -75 6 -55 22 -75 53 -94 149 -25 125 -30 218 -28 529 1 347 -4
377 -81 461 -55 60 -130 111 -266 179 -108 54 -159 60 -189 22z m1016 -795
c-1 -53 -22 -124 -38 -129 -11 -4 -13 11 -9 85 3 50 9 96 13 103 13 21 35 -18
34 -59z"/>
<path d="M19101 3949 c-19 -20 -46 -140 -71 -314 -24 -173 -6 -417 41 -558 57
-167 111 -237 227 -294 69 -35 83 -38 157 -38 116 1 172 29 289 147 l91 92 3
-43 c2 -24 -1 -103 -7 -177 -12 -165 -24 -190 -136 -287 -186 -160 -314 -394
-345 -630 -15 -109 -2 -180 44 -240 53 -70 129 -81 241 -34 82 34 246 145 307
209 157 163 263 434 327 838 71 449 70 672 -6 883 -14 40 -35 100 -47 134 -12
35 -27 68 -34 75 -18 18 -111 27 -162 16 -82 -17 -107 -58 -120 -196 -12 -134
-54 -263 -142 -437 -73 -145 -120 -196 -180 -197 -43 -1 -92 54 -114 127 -17
62 -17 99 6 377 17 194 5 315 -35 384 -45 76 -210 184 -282 184 -20 0 -40 -8
-52 -21z m669 -1764 c-17 -106 -39 -203 -49 -224 -46 -88 -190 -231 -234 -231
-32 0 -28 88 9 235 44 171 208 432 263 418 10 -3 23 1 27 9 18 28 14 -23 -16
-207z"/>
<path d="M12335 3843 c-148 -20 -336 -125 -435 -243 -115 -139 -168 -287 -177
-490 -4 -95 -1 -141 11 -194 62 -261 308 -376 592 -277 308 109 564 471 564
800 0 81 -44 167 -130 251 -125 123 -268 174 -425 153z m258 -216 c69 -41 102
-72 122 -117 17 -38 18 -49 6 -128 -26 -184 -135 -399 -259 -514 -96 -88 -149
-105 -220 -69 -84 43 -106 111 -97 295 6 118 10 138 40 206 18 41 47 111 65
155 38 96 74 152 120 183 31 21 44 23 106 20 54 -4 83 -11 117 -31z"/>
<path d="M21095 3840 c-232 -35 -445 -200 -541 -417 -56 -125 -87 -359 -65
-478 60 -318 388 -434 714 -251 248 138 447 469 447 741 0 69 -14 108 -66 181
-114 163 -309 252 -489 224z m227 -196 c55 -18 135 -85 154 -131 30 -70 11
-191 -57 -360 -39 -100 -102 -194 -181 -271 -130 -129 -235 -133 -306 -13 -26
45 -27 49 -25 193 3 160 0 146 86 355 72 176 111 225 190 243 37 8 73 4 139
-16z"/>
<path d="M22000 3687 c-66 -44 -92 -124 -136 -414 -42 -284 -27 -415 62 -549
44 -67 132 -135 207 -161 33 -11 81 -18 132 -18 69 0 89 4 145 31 82 40 164
114 226 204 30 45 50 66 55 58 3 -7 11 -46 18 -86 15 -96 37 -137 110 -204
100 -93 211 -123 344 -94 130 29 188 65 323 200 109 109 126 131 168 216 47
97 67 170 58 216 -6 31 -26 41 -48 23 -20 -17 -75 -126 -105 -209 -30 -85 -60
-133 -123 -198 -59 -62 -108 -90 -170 -98 l-43 -6 -6 268 c-6 280 -14 340 -55
420 -41 81 -151 155 -231 156 -79 1 -108 -32 -167 -185 -43 -113 -261 -467
-312 -507 -30 -24 -39 -22 -65 12 -30 41 -32 127 -7 274 13 71 24 174 24 229
1 135 -20 181 -144 309 -128 133 -191 160 -260 113z"/>
</g>
</svg>
